# xmcd
# Copyright (C) 1995-1998 Ti Kan
#
# Track frame offsets:
#       150
#       17826
#       33862
#       47720
#       69848
#       89221
#       103734
#       121404
#       136692
#       144725
#       159289
#       182244
#       192292
#       208172
#
# Disc length: 3085 seconds
#
# Revision: 1
# Processed by: cddbd v1.5.2PL0 Copyright (c) Steve Scherf et al.
# Submitted via: CD-Import v1.0
#
DISCID=c60c0b0e
DTITLE=Neutral Zone - It Don't Mean A Thing If You Ain't Got That Kling
DYEAR=2006
DGENRE=
TTITLE0=Do The Sharon
TTITLE1=Brian Matthew
TTITLE2=My Head
TTITLE3=Queer Party Friends
TTITLE4=Third Level
TTITLE5=Rev It Up
TTITLE6=Ok Girl
TTITLE7=Ho Ho
TTITLE8=A.m. Jazz
TTITLE9=Like A Fool
TTITLE10=Stupid Questions
TTITLE11=Red Circuitry
TTITLE12=There Goes The Train
TTITLE13=It's Getting Louder Everyday
EXTD=
EXTT0=
EXTT1=
EXTT2=
EXTT3=
EXTT4=
EXTT5=
EXTT6=
EXTT7=
EXTT8=
EXTT9=
EXTT10=
EXTT11=
EXTT12=
EXTT13=
PLAYORDER=
